<svg width="858" height="121" viewBox="0 0 858 121" fill="none" xmlns="http://www.w3.org/2000/svg">
<path d="M0 120.999V4.00986H26.7097V98.4367H82.4374V120.999H0Z" fill="white"/>
<path d="M95.5888 4.00986H122.299V120.999H95.5888V4.00986Z" fill="white"/>
<path d="M142.552 4.00986H253.019V26.572H169.262V50.1369H235.707V71.195H169.262V120.999H142.552V4.00986Z" fill="white"/>
<path d="M297.402 120.999V26.572H257.997V4.00986H363.517V26.572H324.112V120.999H297.402Z" fill="white"/>
<path d="M372.211 120.999V4.00986H430.412C453.165 4.00986 481.853 7.01815 481.853 37.9367C481.853 47.63 477.731 54.3151 471.961 58.9947V60.1646C480.04 65.0112 485.975 72.6991 485.975 85.0665C485.975 117.656 453.165 120.999 430.412 120.999H372.211ZM398.921 98.4367H426.62C444.262 98.4367 459.265 97.9353 459.265 84.398C459.265 71.1949 446.735 70.6936 437.337 70.6936H398.921V98.4367ZM398.921 50.3041H437.337C441.954 50.3041 455.144 49.3013 455.144 38.7723C455.144 27.4077 444.427 26.572 426.62 26.572H398.921V50.3041Z" fill="white"/>
<path d="M501.29 4.00986H606.81V26.572H528V51.474H586.201V72.532H528V98.4367H608.459V120.999H501.29V4.00986Z" fill="white"/>
<path d="M625.539 120.999V4.00986H673.848C696.6 4.00986 729.41 7.01815 729.41 38.9394C729.41 56.822 717.704 65.1784 703.525 69.0223L732.708 120.999H703.69L677.969 72.0306H652.249V120.999H625.539ZM652.249 51.6411H670.055C687.697 51.6411 702.701 51.6411 702.701 38.9394C702.701 26.572 687.862 26.572 670.055 26.572H652.249V51.6411Z" fill="white"/>
<path d="M739.29 60.5C739.29 12.3674 772.1 0 798.645 0C822.552 0 851.57 10.0276 857.011 47.297H829.642C826.344 27.9102 813.484 22.5622 798.645 22.5622C780.839 22.5622 766 30.25 766 60.5C766 90.75 780.839 98.4378 798.645 98.4378C817.606 98.4378 826.344 91.4185 829.642 78.3826H799.799V59.9986H858V118.994H834.258L832.774 101.78H831.125C822.882 116.32 809.197 121 792.874 121C772.1 121 739.29 108.633 739.29 60.5Z" fill="white"/>
</svg>
