<svg width="20" height="12" viewBox="0 0 20 12" fill="none" xmlns="http://www.w3.org/2000/svg">
<path d="M0.226562 0.599502C0.0390625 0.784066 0 0.880039 0 1.17534C0 1.48541 0.0390625 1.574 0.242188 1.75856L0.476562 1.97266H10H19.5234L19.7578 1.75856C19.9609 1.574 20 1.48541 20 1.17534C20 0.880039 19.9609 0.784066 19.7734 0.599502L19.5469 0.385408H10H0.453125L0.226562 0.599502Z" fill="#151515"/>
<path d="M0.226562 5.32216C0.0390625 5.50672 0 5.6027 0 5.898C0 6.20806 0.0390625 6.29665 0.242188 6.48122L0.476562 6.69531H10H19.5234L19.7578 6.48122C19.9609 6.29665 20 6.20806 20 5.898C20 5.6027 19.9609 5.50672 19.7734 5.32216L19.5469 5.10806H10H0.453125L0.226562 5.32216Z" fill="#151515"/>
<path d="M0.226562 10.0505C0.0390625 10.2277 0 10.331 0 10.6189C0 10.8995 0.0390625 11.0176 0.210938 11.18L0.421875 11.3867H10H19.5781L19.7891 11.18C19.9609 11.0176 20 10.8995 20 10.6189C20 10.331 19.9609 10.2277 19.7734 10.0505L19.5469 9.83638H10H0.453125L0.226562 10.0505Z" fill="#151515"/>
</svg>
