<svg width="16" height="16" viewBox="0 0 16 16" fill="none" xmlns="http://www.w3.org/2000/svg">
<path d="M0.423188 0.086956C0.127536 0.214492 -0.0521739 0.591304 0.0289855 0.910145C0.0521739 1.02029 1.1942 2.2029 3.52464 4.53913L6.98551 8L3.48986 11.4957L0 14.9855V15.2986C0 15.571 0.0231884 15.629 0.197101 15.8029C0.371015 15.9768 0.428986 16 0.701449 16H1.01449L4.50435 12.5101L8 9.01449L11.4957 12.5101L14.9855 16H15.2986C15.571 16 15.629 15.9768 15.8029 15.8029C15.9768 15.629 16 15.571 16 15.2986V14.9855L12.5101 11.4957L9.01449 8L12.5101 4.50435L16 1.01449V0.701448C16 0.428985 15.9768 0.371014 15.8029 0.197101C15.629 0.0231876 15.571 0 15.2986 0H14.9855L11.4957 3.48985L8 6.98551L4.56232 3.55362C2.67826 1.66956 1.07246 0.0985498 1.0029 0.0637674C0.834783 -0.0173912 0.649275 -0.0115948 0.423188 0.086956Z" fill="black"/>
</svg>
